<svg data-v-423bf9ae="" xmlns="http://www.w3.org/2000/svg" viewBox="0 0 440 112" class="iconLeftSlogan"><!----><!----><!----><g data-v-423bf9ae="" id="7a445e0a-de42-4f87-8914-5083ff5440da" fill="white" transform="matrix(4.846958609465144,0,0,4.846958609465144,125.6968215131923,-15.13755257850724)"><path d="M1.69 4.02Q1.71 3.85 1.88 3.63Q2.04 3.40 2.23 3.28Q2.41 3.16 2.52 3.14L2.52 3.14Q2.77 3.07 2.76 3.29L2.76 3.29L2.28 8.54Q2.72 8.02 3.30 7.68Q3.88 7.34 4.47 7.34L4.47 7.34Q6.86 7.31 6.51 10.63L6.51 10.63L6.17 14.55Q6.16 14.70 5.99 14.92Q5.82 15.15 5.64 15.27Q5.46 15.40 5.35 15.43L5.35 15.43Q5.10 15.50 5.11 15.27L5.11 15.27L5.45 11.35Q5.77 8.39 3.71 8.40L3.71 8.40Q3.30 8.40 3.11 8.51L3.11 8.51Q2.62 8.79 2.20 10.05L2.20 10.05Q2.17 10.14 2.11 10.23L2.11 10.23L1.72 14.55Q1.71 14.70 1.54 14.93Q1.37 15.16 1.19 15.28Q1.01 15.40 0.90 15.43L0.90 15.43Q0.64 15.50 0.66 15.27L0.66 15.27L1.69 4.02ZM11.97 7.34L11.97 7.34Q14.55 7.56 14.04 11.55L14.04 11.55Q13.83 13.15 13.10 14.11L13.10 14.11Q11.98 15.60 10.32 15.44L10.32 15.44Q7.49 15.19 7.92 11.80L7.92 11.80Q8.05 10.84 8.29 10.11Q8.54 9.38 9.03 8.75L9.03 8.75Q10.22 7.18 11.97 7.34ZM11.16 8.40L11.16 8.40Q10.09 8.30 9.72 8.81L9.72 8.81Q9.51 9.07 9.30 9.68Q9.09 10.29 8.99 11.10L8.99 11.10Q8.60 14.15 11.13 14.38L11.13 14.38Q12.10 14.46 12.40 14.06L12.40 14.06Q12.56 13.85 12.73 13.36Q12.89 12.88 12.98 12.25L12.98 12.25Q13.45 8.60 11.16 8.40ZM15.97 8.22Q15.99 8.06 16.16 7.84Q16.32 7.62 16.51 7.50Q16.69 7.38 16.81 7.35L16.81 7.35Q17.07 7.29 17.04 7.50L17.04 7.50L16.97 8.12Q18.05 7.21 19.19 7.34L19.19 7.34Q19.39 7.36 19.29 7.63L19.29 7.63Q19.15 7.99 18.83 8.20Q18.51 8.41 18.38 8.40L18.38 8.40Q17.67 8.32 17.16 8.69L17.16 8.69Q16.93 8.88 16.83 9.55L16.83 9.55L16.30 14.56Q16.28 14.73 16.11 14.95Q15.95 15.16 15.76 15.28Q15.58 15.40 15.46 15.43L15.46 15.43Q15.20 15.48 15.23 15.26L15.23 15.26L15.75 10.36Q15.75 10.33 15.76 10.25L15.76 10.25L15.97 8.22ZM25.77 13.96Q25.94 13.93 25.97 14.06Q26.00 14.20 25.85 14.42Q25.70 14.64 25.35 14.92Q25.00 15.20 24.61 15.36L24.61 15.36Q23.84 15.67 23.66 15.08L23.66 15.08Q23.58 14.84 23.59 14.20L23.59 14.20Q22.86 15.08 22.12 15.34Q21.38 15.61 20.73 15.43L20.73 15.43Q18.73 14.87 19.53 10.81L19.53 10.81Q19.80 9.46 20.47 8.60L20.47 8.60Q21.62 7.11 23.28 7.34L23.28 7.34Q23.98 7.42 24.37 7.85L24.37 7.85Q24.70 7.42 25.05 7.34L25.05 7.34Q25.16 7.31 25.22 7.36Q25.28 7.41 25.27 7.52L25.27 7.52Q24.46 13.44 24.70 14.18L24.70 14.18Q24.81 14.52 25.06 14.39L25.06 14.39Q25.17 14.34 25.38 14.16Q25.59 13.99 25.77 13.96ZM23.66 12.80L23.66 12.80Q23.76 11.68 23.80 11.37L23.80 11.37Q24.16 8.62 22.44 8.40L22.44 8.40Q22.02 8.34 21.71 8.41L21.71 8.41Q21.29 8.50 21.14 8.68L21.14 8.68Q20.79 9.13 20.57 10.28Q20.34 11.42 20.37 12.31L20.37 12.31Q20.45 14.04 21.60 14.36L21.60 14.36Q22.48 14.62 22.96 14.04L22.96 14.04Q23.31 13.62 23.66 12.80ZM30.67 13.77Q30.84 13.73 30.87 13.87Q30.90 14 30.76 14.22Q30.62 14.43 30.21 14.76Q29.81 15.09 29.32 15.30L29.32 15.30Q28.35 15.69 27.87 15.11L27.87 15.11Q27.43 14.59 27.64 13.13L27.64 13.13L28 8.92L26.94 8.92Q26.73 8.92 26.82 8.65L26.82 8.65Q26.94 8.30 27.25 8.07Q27.57 7.84 27.72 7.84L27.72 7.84L28.10 7.84L28.31 5.45Q28.32 5.29 28.49 5.07Q28.66 4.84 28.84 4.72Q29.02 4.59 29.13 4.56L29.13 4.56Q29.39 4.49 29.37 4.72L29.37 4.72L29.11 7.84Q29.72 7.84 30.32 7.84L30.32 7.84Q30.53 7.84 30.44 8.12L30.44 8.12Q30.32 8.47 30.01 8.69Q29.69 8.92 29.54 8.92L29.54 8.92L29.01 8.92L28.70 12.42Q28.70 12.43 28.70 12.45L28.70 12.45Q28.50 13.71 28.88 14.13L28.88 14.13Q29.23 14.56 29.74 14.34L29.74 14.34Q29.97 14.22 30.23 14.01Q30.49 13.80 30.67 13.77ZM32.76 8.22Q32.77 8.06 32.94 7.84Q33.11 7.62 33.29 7.50Q33.47 7.38 33.60 7.35L33.60 7.35Q33.85 7.29 33.82 7.50L33.82 7.50L33.08 14.56Q33.07 14.73 32.90 14.95Q32.73 15.16 32.55 15.28Q32.37 15.40 32.24 15.43L32.24 15.43Q31.99 15.48 32.02 15.26L32.02 15.26L32.76 8.22ZM32.83 5.81Q32.84 5.66 33.01 5.43Q33.17 5.21 33.35 5.08Q33.53 4.96 33.66 4.93L33.66 4.93Q33.91 4.86 33.89 5.08L33.89 5.08L33.82 6.06Q33.81 6.22 33.65 6.44Q33.49 6.66 33.31 6.79Q33.12 6.92 33.00 6.94L33.00 6.94Q32.75 7.01 32.76 6.79L32.76 6.79L32.83 5.81ZM38.95 7.34L38.95 7.34Q41.52 7.56 41.02 11.55L41.02 11.55Q40.81 13.15 40.08 14.11L40.08 14.11Q38.96 15.60 37.30 15.44L37.30 15.44Q34.47 15.19 34.90 11.80L34.90 11.80Q35.03 10.84 35.27 10.11Q35.52 9.38 36.01 8.75L36.01 8.75Q37.20 7.18 38.95 7.34ZM38.14 8.40L38.14 8.40Q37.07 8.30 36.69 8.81L36.69 8.81Q36.48 9.07 36.27 9.68Q36.06 10.29 35.97 11.10L35.97 11.10Q35.57 14.15 38.11 14.38L38.11 14.38Q39.07 14.46 39.38 14.06L39.38 14.06Q39.54 13.85 39.70 13.36Q39.87 12.88 39.96 12.25L39.96 12.25Q40.43 8.60 38.14 8.40ZM42.15 15.27L42.15 15.27L43.13 5.19Q43.22 4.66 43.65 4.41L43.65 4.41Q43.82 4.31 44.03 4.30L44.03 4.30Q50.39 3.92 50.22 9.49L50.22 9.49Q50.15 11.59 49.05 13.05Q47.95 14.52 46.27 15.05Q44.59 15.58 42.28 15.44L42.28 15.44Q42.14 15.44 42.15 15.27ZM44.11 5.33L43.23 14.39Q45.28 14.50 46.58 14.08Q47.88 13.65 48.37 12.98L48.37 12.98Q49.08 12.01 49.15 10.25L49.15 10.25Q49.22 7.81 47.98 6.59Q46.73 5.36 44.11 5.33L44.11 5.33ZM56.50 11.73L52.44 11.63Q52.39 14.22 54.70 14.38L54.70 14.38Q55.19 14.42 55.58 14.35L55.58 14.35Q56.08 14.27 56.14 14.15L56.14 14.15Q56.25 13.94 56.47 13.75Q56.69 13.55 56.87 13.49Q57.05 13.43 57.12 13.54L57.12 13.54Q57.22 13.72 56.85 14.20Q56.49 14.67 56.11 14.95Q55.72 15.22 55.36 15.32L55.36 15.32Q54.54 15.54 53.89 15.44L53.89 15.44Q51.13 15.26 51.41 11.96L51.41 11.96Q51.49 10.93 51.72 10.18Q51.94 9.44 52.43 8.78L52.43 8.78Q53.55 7.27 55.22 7.34L55.22 7.34Q57.86 7.43 57.43 10.85L57.43 10.85Q57.30 11.41 56.87 11.65L56.87 11.65Q56.70 11.75 56.50 11.73L56.50 11.73ZM52.54 10.58L52.54 10.58Q52.64 10.56 52.70 10.56L52.70 10.56L56.42 10.64Q56.38 8.47 54.42 8.40L54.42 8.40Q53.47 8.36 53.14 8.81L53.14 8.81Q52.72 9.37 52.54 10.58ZM58.88 7.96Q59.01 7.74 59.22 7.56Q59.43 7.38 59.61 7.34Q59.79 7.31 59.84 7.42L59.84 7.42L61.52 13.41L63.77 8.08Q63.85 7.88 64.06 7.67Q64.26 7.46 64.46 7.38Q64.67 7.29 64.75 7.37Q64.83 7.45 64.75 7.66L64.75 7.66L61.78 14.70Q61.57 15.19 61.08 15.40L61.08 15.40Q60.80 15.53 60.76 15.34L60.76 15.34L58.77 8.30Q58.74 8.18 58.88 7.96Z"></path></g><!----><g data-v-423bf9ae="" id="5a750631-4f67-4b08-b276-5d742066597b" transform="matrix(1.1111111958821616,0,0,1.1111111958821616,0.5555514017740819,0.4444359673390821)" stroke="none" fill="white"><circle cx="49.494" cy="6.603" r="2.128"></circle><path d="M18.267 34.851l6.123-7.465a1.474 1.474 0 10-2.28-1.872l-6.972 8.499a1.475 1.475 0 00.098 1.979l7.593 7.591c.288.289.665.433 1.042.433a1.475 1.475 0 001.043-2.519l-6.647-6.646zM44.093 32.998L36.5 25.406a1.475 1.475 0 10-2.086 2.087l6.647 6.646-6.123 7.465a1.477 1.477 0 002.283 1.871l6.97-8.499a1.475 1.475 0 00-.098-1.978z"></path><path d="M88.568 0H9.432C4.491 0 0 4.02 0 8.96v55.608C0 69.51 4.491 74 9.432 74h31.279c.159 2 .311 8.268-.323 10.369-1.163 1.729-13.49 5.365-24.164 7.854-.664.156-1.224.631-1.224 1.314v4.992c0 .813.835 1.471 1.647 1.471h64.707c.812 0 1.646-.658 1.646-1.471v-4.992c0-.684-.559-1.277-1.225-1.434-10.732-2.486-23.082-6.008-24.202-7.625-.677-2.201-.648-8.478-.534-10.478h31.529C93.508 74 98 69.51 98 64.568V8.96C98 4.02 93.508 0 88.568 0zM80 94.703V97H18v-2.298c11-2.638 24.097-6.121 25.095-9.362.868-2.828.701-9.34.562-11.34h10.438c-.104 2-.188 8.514.682 11.343.996 3.24 14.223 6.721 25.223 9.36zM95 64.98c0 3.326-3.695 6.02-7.02 6.02H9.02A6.018 6.018 0 013 64.98V9.019A6.02 6.02 0 019.02 3h78.96C91.305 3 95 5.695 95 9.019V64.98z"></path><path d="M88.529 12H9.471C8.659 12 8 12.659 8 13.471v44.058A1.47 1.47 0 009.471 59h79.058A1.47 1.47 0 0090 57.529V13.471A1.47 1.47 0 0088.529 12zM11 15h37v41H11V15zm76 41H51V15h36v41z"></path><path d="M54.5 36h29a1.5 1.5 0 001.5-1.5v-16a1.5 1.5 0 00-1.5-1.5h-29a1.5 1.5 0 00-1.5 1.5v16a1.5 1.5 0 001.5 1.5zM56 20h26v13H56V20zM83 39H55a1.5 1.5 0 100 3h28a1.5 1.5 0 100-3zM83 45H55a1.5 1.5 0 100 3h28a1.5 1.5 0 100-3zM83 51H55a1.5 1.5 0 000 3h28a1.5 1.5 0 000-3z"></path></g><!----><g data-v-423bf9ae="" id="2f4c8572-f340-4b00-932e-0edba8a131e1" fill="white" transform="matrix(0.30147043415039687,0,0,0.30147043415039687,128.7622870832655,58.90264887638219)"><path d="M6.03 6.54L4.17 13.02L3.30 13.02L0.42 3.78L1.18 3.78L3.74 12.45L6.16 3.78L6.97 3.78L9.39 12.46L11.98 3.78L12.70 3.78L9.81 13.02L8.95 13.02L7.08 6.54L6.57 4.54L6.55 4.54L6.03 6.54ZM27.99 3.78L28.69 3.78L28.69 13.02L27.99 13.02L27.99 8.65L22.27 8.65L22.27 13.02L21.57 13.02L21.57 3.78L22.27 3.78L22.27 7.99L27.99 7.99L27.99 3.78ZM39.30 12.38L45.14 12.38L45.14 13.02L38.60 13.02L38.60 3.78L44.91 3.78L44.91 4.42L39.30 4.42L39.30 7.99L43.74 7.99L43.74 8.65L39.30 8.65L39.30 12.38ZM61.11 13.02L60.28 13.02L57.64 9.02L57.60 9.02L54.87 9.02L54.87 13.02L54.17 13.02L54.17 3.78L57.60 3.78Q58.98 3.78 59.80 4.48Q60.62 5.18 60.62 6.40L60.62 6.40Q60.62 7.41 60.03 8.07Q59.44 8.74 58.42 8.93L58.42 8.93L61.11 13.02ZM54.87 4.42L54.87 8.36L57.58 8.36Q58.70 8.36 59.30 7.85Q59.89 7.35 59.89 6.40L59.89 6.40Q59.89 5.45 59.30 4.93Q58.70 4.42 57.58 4.42L57.58 4.42L54.87 4.42ZM70.83 12.38L76.66 12.38L76.66 13.02L70.13 13.02L70.13 3.78L76.44 3.78L76.44 4.42L70.83 4.42L70.83 7.99L75.26 7.99L75.26 8.65L70.83 8.65L70.83 12.38ZM103.49 3.78L104.19 3.78L104.19 13.02L103.49 13.02L103.49 8.65L97.78 8.65L97.78 13.02L97.08 13.02L97.08 3.78L97.78 3.78L97.78 7.99L103.49 7.99L103.49 3.78ZM117.77 3.64Q119.07 3.64 120.03 4.22Q120.99 4.80 121.51 5.87Q122.02 6.94 122.02 8.40L122.02 8.40Q122.02 9.86 121.51 10.93Q120.99 12.00 120.03 12.58Q119.07 13.16 117.77 13.16L117.77 13.16Q116.47 13.16 115.51 12.58Q114.55 12.00 114.03 10.93Q113.51 9.86 113.51 8.40L113.51 8.40Q113.51 6.94 114.03 5.87Q114.55 4.80 115.51 4.22Q116.47 3.64 117.77 3.64L117.77 3.64ZM117.77 4.28Q116.69 4.28 115.90 4.78Q115.11 5.28 114.68 6.21Q114.25 7.14 114.25 8.40L114.25 8.40Q114.25 9.66 114.68 10.59Q115.11 11.52 115.90 12.02Q116.69 12.52 117.77 12.52L117.77 12.52Q118.85 12.52 119.64 12.02Q120.44 11.52 120.87 10.59Q121.30 9.66 121.30 8.40L121.30 8.40Q121.30 7.14 120.87 6.21Q120.44 5.28 119.64 4.78Q118.85 4.28 117.77 4.28L117.77 4.28ZM138.45 3.78L138.45 13.02L137.58 13.02L132.68 5.77L131.99 4.54L131.98 4.54L132.02 5.70L132.02 13.02L131.35 13.02L131.35 3.78L132.23 3.78L137.12 11.02L137.82 12.26L137.79 11.10L137.79 3.78L138.45 3.78ZM152.03 3.64Q153.33 3.64 154.29 4.22Q155.25 4.80 155.76 5.87Q156.28 6.94 156.28 8.40L156.28 8.40Q156.28 9.86 155.76 10.93Q155.25 12.00 154.29 12.58Q153.33 13.16 152.03 13.16L152.03 13.16Q150.72 13.16 149.76 12.58Q148.81 12.00 148.29 10.93Q147.77 9.86 147.77 8.40L147.77 8.40Q147.77 6.94 148.29 5.87Q148.81 4.80 149.76 4.22Q150.72 3.64 152.03 3.64L152.03 3.64ZM152.03 4.28Q150.95 4.28 150.16 4.78Q149.37 5.28 148.94 6.21Q148.51 7.14 148.51 8.40L148.51 8.40Q148.51 9.66 148.94 10.59Q149.37 11.52 150.16 12.02Q150.95 12.52 152.03 12.52L152.03 12.52Q153.10 12.52 153.90 12.02Q154.70 11.52 155.13 10.59Q155.55 9.66 155.55 8.40L155.55 8.40Q155.55 7.14 155.13 6.21Q154.70 5.28 153.90 4.78Q153.10 4.28 152.03 4.28L152.03 4.28ZM172.55 13.02L171.72 13.02L169.08 9.02L169.04 9.02L166.31 9.02L166.31 13.02L165.61 13.02L165.61 3.78L169.04 3.78Q170.42 3.78 171.24 4.48Q172.06 5.18 172.06 6.40L172.06 6.40Q172.06 7.41 171.47 8.07Q170.88 8.74 169.86 8.93L169.86 8.93L172.55 13.02ZM166.31 4.42L166.31 8.36L169.02 8.36Q170.14 8.36 170.74 7.85Q171.33 7.35 171.33 6.40L171.33 6.40Q171.33 5.45 170.74 4.93Q170.14 4.42 169.02 4.42L169.02 4.42L166.31 4.42ZM201.54 3.78L201.54 13.02L200.87 13.02L200.87 6.13L200.96 4.45L200.94 4.45L197.57 13.02L196.92 13.02L193.55 4.45L193.54 4.45L193.62 6.13L193.62 13.02L192.95 13.02L192.95 3.78L194.00 3.78L196.78 10.78L197.25 12.19L197.26 12.19L197.71 10.79L200.49 3.78L201.54 3.78ZM212.16 12.38L217.99 12.38L217.99 13.02L211.46 13.02L211.46 3.78L217.77 3.78L217.77 4.42L212.16 4.42L212.16 7.99L216.59 7.99L216.59 8.65L212.16 8.65L212.16 12.38ZM227.72 12.38L233.56 12.38L233.56 13.02L227.02 13.02L227.02 3.78L233.34 3.78L233.34 4.42L227.72 4.42L227.72 7.99L232.16 7.99L232.16 8.65L227.72 8.65L227.72 12.38ZM248.89 3.78L248.89 4.42L245.52 4.42L245.52 13.02L244.82 13.02L244.82 4.42L241.44 4.42L241.44 3.78L248.89 3.78ZM260.20 3.64Q262.81 3.64 263.69 5.68L263.69 5.68L263.09 6.17Q262.74 5.18 262.05 4.73Q261.35 4.28 260.22 4.28L260.22 4.28Q259.41 4.28 258.80 4.54Q258.20 4.79 257.89 5.22Q257.57 5.66 257.57 6.20L257.57 6.20Q257.57 6.73 257.84 7.08Q258.10 7.43 258.74 7.68Q259.38 7.92 260.50 8.12L260.50 8.12Q262.30 8.43 263.06 9.02Q263.82 9.60 263.82 10.64L263.82 10.64Q263.82 11.38 263.38 11.96Q262.95 12.53 262.16 12.84Q261.37 13.16 260.34 13.16L260.34 13.16Q258.89 13.16 257.89 12.58Q256.89 12.00 256.52 10.95L256.52 10.95L257.14 10.47Q257.42 11.47 258.27 11.99Q259.11 12.52 260.36 12.52L260.36 12.52Q261.56 12.52 262.33 12.03Q263.09 11.54 263.09 10.68L263.09 10.68Q263.09 9.94 262.47 9.51Q261.84 9.07 260.30 8.81L260.30 8.81Q259 8.58 258.24 8.26Q257.49 7.94 257.16 7.46Q256.83 6.99 256.83 6.27L256.83 6.27Q256.83 5.56 257.24 4.96Q257.66 4.35 258.42 4.00Q259.18 3.64 260.20 3.64L260.20 3.64ZM290.70 3.78L287.14 13.02L286.31 13.02L282.74 3.78L283.50 3.78L286.23 10.93L286.72 12.36L287.21 10.93L289.95 3.78L290.70 3.78ZM300.17 3.78L300.17 13.02L299.47 13.02L299.47 3.78L300.17 3.78ZM312.94 3.64Q315.55 3.64 316.43 5.68L316.43 5.68L315.83 6.17Q315.48 5.18 314.78 4.73Q314.09 4.28 312.96 4.28L312.96 4.28Q312.14 4.28 311.54 4.54Q310.94 4.79 310.63 5.22Q310.31 5.66 310.31 6.20L310.31 6.20Q310.31 6.73 310.58 7.08Q310.84 7.43 311.48 7.68Q312.12 7.92 313.24 8.12L313.24 8.12Q315.04 8.43 315.80 9.02Q316.55 9.60 316.55 10.64L316.55 10.64Q316.55 11.38 316.12 11.96Q315.69 12.53 314.90 12.84Q314.10 13.16 313.08 13.16L313.08 13.16Q311.63 13.16 310.63 12.58Q309.62 12.00 309.26 10.95L309.26 10.95L309.88 10.47Q310.16 11.47 311.00 11.99Q311.85 12.52 313.10 12.52L313.10 12.52Q314.30 12.52 315.06 12.03Q315.83 11.54 315.83 10.68L315.83 10.68Q315.83 9.94 315.20 9.51Q314.58 9.07 313.04 8.81L313.04 8.81Q311.74 8.58 310.98 8.26Q310.23 7.94 309.90 7.46Q309.57 6.99 309.57 6.27L309.57 6.27Q309.57 5.56 309.98 4.96Q310.39 4.35 311.16 4.00Q311.92 3.64 312.94 3.64L312.94 3.64ZM326.45 3.78L326.45 13.02L325.75 13.02L325.75 3.78L326.45 3.78ZM340.03 3.64Q341.33 3.64 342.29 4.22Q343.25 4.80 343.77 5.87Q344.29 6.94 344.29 8.40L344.29 8.40Q344.29 9.86 343.77 10.93Q343.25 12.00 342.29 12.58Q341.33 13.16 340.03 13.16L340.03 13.16Q338.73 13.16 337.77 12.58Q336.81 12.00 336.29 10.93Q335.78 9.86 335.78 8.40L335.78 8.40Q335.78 6.94 336.29 5.87Q336.81 4.80 337.77 4.22Q338.73 3.64 340.03 3.64L340.03 3.64ZM340.03 4.28Q338.95 4.28 338.16 4.78Q337.37 5.28 336.95 6.21Q336.52 7.14 336.52 8.40L336.52 8.40Q336.52 9.66 336.95 10.59Q337.37 11.52 338.16 12.02Q338.95 12.52 340.03 12.52L340.03 12.52Q341.11 12.52 341.91 12.02Q342.71 11.52 343.13 10.59Q343.56 9.66 343.56 8.40L343.56 8.40Q343.56 7.14 343.13 6.21Q342.71 5.28 341.91 4.78Q341.11 4.28 340.03 4.28L340.03 4.28ZM360.71 3.78L360.71 13.02L359.84 13.02L354.94 5.77L354.26 4.54L354.24 4.54L354.28 5.70L354.28 13.02L353.61 13.02L353.61 3.78L354.49 3.78L359.38 11.02L360.08 12.26L360.05 11.10L360.05 3.78L360.71 3.78ZM370.72 11.87Q371.08 11.87 371.29 12.15Q371.49 12.43 371.49 12.89L371.49 12.89Q371.49 13.48 371.18 14Q370.87 14.52 370.29 14.81L370.29 14.81L369.89 14.46Q370.38 14.28 370.70 13.85Q371.01 13.41 370.99 13.01L370.99 13.01L370.94 12.99Q370.85 13.13 370.62 13.13L370.62 13.13Q370.41 13.13 370.24 12.96Q370.08 12.80 370.08 12.52L370.08 12.52Q370.08 12.25 370.27 12.06Q370.45 11.87 370.72 11.87L370.72 11.87ZM397.94 13.02L396.77 10.12L392.35 10.12L391.20 13.02L390.46 13.02L394.16 3.78L394.98 3.78L398.68 13.02L397.94 13.02ZM392.62 9.48L396.52 9.48L394.91 5.45L394.58 4.47L394.56 4.47L394.23 5.42L392.62 9.48ZM414.50 3.78L414.50 13.02L413.63 13.02L408.73 5.77L408.04 4.54L408.03 4.54L408.07 5.70L408.07 13.02L407.40 13.02L407.40 3.78L408.28 3.78L413.17 11.02L413.87 12.26L413.84 11.10L413.84 3.78L414.50 3.78ZM427.32 3.78Q429.53 3.78 430.73 4.95Q431.93 6.12 431.93 8.33L431.93 8.33Q431.93 10.60 430.73 11.81Q429.53 13.02 427.32 13.02L427.32 13.02L424.41 13.02L424.41 3.78L427.32 3.78ZM427.38 12.38Q429.23 12.38 430.21 11.33Q431.20 10.29 431.20 8.33L431.20 8.33Q431.20 6.45 430.21 5.44Q429.23 4.42 427.38 4.42L427.38 4.42L425.11 4.42L425.11 12.38L427.38 12.38ZM455.56 3.78Q457.77 3.78 458.97 4.95Q460.17 6.12 460.17 8.33L460.17 8.33Q460.17 10.60 458.97 11.81Q457.77 13.02 455.56 13.02L455.56 13.02L452.65 13.02L452.65 3.78L455.56 3.78ZM455.62 12.38Q457.46 12.38 458.45 11.33Q459.44 10.29 459.44 8.33L459.44 8.33Q459.44 6.45 458.45 5.44Q457.46 4.42 455.62 4.42L455.62 4.42L453.35 4.42L453.35 12.38L455.62 12.38ZM476.45 13.02L475.62 13.02L472.98 9.02L472.93 9.02L470.20 9.02L470.20 13.02L469.50 13.02L469.50 3.78L472.93 3.78Q474.32 3.78 475.14 4.48Q475.96 5.18 475.96 6.40L475.96 6.40Q475.96 7.41 475.37 8.07Q474.78 8.74 473.76 8.93L473.76 8.93L476.45 13.02ZM470.20 4.42L470.20 8.36L472.92 8.36Q474.04 8.36 474.64 7.85Q475.23 7.35 475.23 6.40L475.23 6.40Q475.23 5.45 474.64 4.93Q474.04 4.42 472.92 4.42L472.92 4.42L470.20 4.42ZM486.16 12.38L492.00 12.38L492.00 13.02L485.46 13.02L485.46 3.78L491.78 3.78L491.78 4.42L486.16 4.42L486.16 7.99L490.60 7.99L490.60 8.65L486.16 8.65L486.16 12.38ZM507.32 13.02L506.16 10.12L501.73 10.12L500.58 13.02L499.84 13.02L503.54 3.78L504.36 3.78L508.06 13.02L507.32 13.02ZM502.00 9.48L505.90 9.48L504.29 5.45L503.96 4.47L503.94 4.47L503.61 5.42L502.00 9.48ZM525.38 3.78L525.38 13.02L524.71 13.02L524.71 6.13L524.79 4.45L524.78 4.45L521.40 13.02L520.76 13.02L517.38 4.45L517.37 4.45L517.45 6.13L517.45 13.02L516.78 13.02L516.78 3.78L517.83 3.78L520.62 10.78L521.08 12.19L521.09 12.19L521.54 10.79L524.33 3.78L525.38 3.78ZM538.15 3.64Q540.75 3.64 541.63 5.68L541.63 5.68L541.03 6.17Q540.68 5.18 539.99 4.73Q539.29 4.28 538.16 4.28L538.16 4.28Q537.35 4.28 536.75 4.54Q536.14 4.79 535.83 5.22Q535.51 5.66 535.51 6.20L535.51 6.20Q535.51 6.73 535.78 7.08Q536.05 7.43 536.68 7.68Q537.32 7.92 538.44 8.12L538.44 8.12Q540.25 8.43 541.00 9.02Q541.76 9.60 541.76 10.64L541.76 10.64Q541.76 11.38 541.32 11.96Q540.89 12.53 540.10 12.84Q539.31 13.16 538.29 13.16L538.29 13.16Q536.83 13.16 535.83 12.58Q534.83 12.00 534.46 10.95L534.46 10.95L535.08 10.47Q535.36 11.47 536.21 11.99Q537.05 12.52 538.30 12.52L538.30 12.52Q539.50 12.52 540.27 12.03Q541.03 11.54 541.03 10.68L541.03 10.68Q541.03 9.94 540.41 9.51Q539.78 9.07 538.24 8.81L538.24 8.81Q536.94 8.58 536.19 8.26Q535.43 7.94 535.10 7.46Q534.77 6.99 534.77 6.27L534.77 6.27Q534.77 5.56 535.19 4.96Q535.60 4.35 536.36 4.00Q537.12 3.64 538.15 3.64L538.15 3.64ZM563.04 12.38L568.88 12.38L568.88 13.02L562.34 13.02L562.34 3.78L568.65 3.78L568.65 4.42L563.04 4.42L563.04 7.99L567.48 7.99L567.48 8.65L563.04 8.65L563.04 12.38ZM585.00 3.78L585.00 13.02L584.14 13.02L579.24 5.77L578.55 4.54L578.54 4.54L578.58 5.70L578.58 13.02L577.91 13.02L577.91 3.78L578.79 3.78L583.67 11.02L584.37 12.26L584.35 11.10L584.35 3.78L585.00 3.78ZM598.47 8.50L602.27 8.50L602.27 13.02L601.71 13.02L601.68 11.41Q601.30 12.25 600.50 12.71Q599.69 13.16 598.50 13.16L598.50 13.16Q597.24 13.16 596.30 12.58Q595.35 12.00 594.84 10.92Q594.33 9.84 594.33 8.40L594.33 8.40Q594.33 6.96 594.85 5.88Q595.38 4.80 596.33 4.22Q597.28 3.64 598.54 3.64L598.54 3.64Q599.96 3.64 600.85 4.20Q601.75 4.76 602.20 5.91L602.20 5.91L601.55 6.24Q601.23 5.28 600.47 4.78Q599.70 4.28 598.54 4.28L598.54 4.28Q597.51 4.28 596.72 4.78Q595.94 5.28 595.50 6.21Q595.07 7.14 595.07 8.40L595.07 8.40Q595.07 10.32 595.99 11.42Q596.90 12.52 598.53 12.52L598.53 12.52Q599.54 12.52 600.24 12.12Q600.94 11.72 601.27 11.07Q601.61 10.42 601.61 9.67L601.61 9.67L601.61 9.16L598.47 9.16L598.47 8.50ZM612.44 3.78L612.44 13.02L611.74 13.02L611.74 3.78L612.44 3.78ZM629.45 3.78L629.45 13.02L628.59 13.02L623.69 5.77L623 4.54L622.99 4.54L623.03 5.70L623.03 13.02L622.36 13.02L622.36 3.78L623.24 3.78L628.12 11.02L628.82 12.26L628.80 11.10L628.80 3.78L629.45 3.78ZM640.07 12.38L645.90 12.38L645.90 13.02L639.37 13.02L639.37 3.78L645.68 3.78L645.68 4.42L640.07 4.42L640.07 7.99L644.50 7.99L644.50 8.65L640.07 8.65L640.07 12.38ZM655.63 12.38L661.47 12.38L661.47 13.02L654.93 13.02L654.93 3.78L661.25 3.78L661.25 4.42L655.63 4.42L655.63 7.99L660.07 7.99L660.07 8.65L655.63 8.65L655.63 12.38ZM677.45 13.02L676.62 13.02L673.97 9.02L673.93 9.02L671.20 9.02L671.20 13.02L670.50 13.02L670.50 3.78L673.93 3.78Q675.32 3.78 676.14 4.48Q676.96 5.18 676.96 6.40L676.96 6.40Q676.96 7.41 676.37 8.07Q675.78 8.74 674.76 8.93L674.76 8.93L677.45 13.02ZM671.20 4.42L671.20 8.36L673.92 8.36Q675.04 8.36 675.63 7.85Q676.23 7.35 676.23 6.40L676.23 6.40Q676.23 5.45 675.63 4.93Q675.04 4.42 673.92 4.42L673.92 4.42L671.20 4.42ZM703.77 3.78L703.77 4.42L700.39 4.42L700.39 13.02L699.69 13.02L699.69 4.42L696.32 4.42L696.32 3.78L703.77 3.78ZM715.71 3.64Q717.01 3.64 717.97 4.22Q718.93 4.80 719.45 5.87Q719.96 6.94 719.96 8.40L719.96 8.40Q719.96 9.86 719.45 10.93Q718.93 12.00 717.97 12.58Q717.01 13.16 715.71 13.16L715.71 13.16Q714.41 13.16 713.45 12.58Q712.49 12.00 711.97 10.93Q711.45 9.86 711.45 8.40L711.45 8.40Q711.45 6.94 711.97 5.87Q712.49 4.80 713.45 4.22Q714.41 3.64 715.71 3.64L715.71 3.64ZM715.71 4.28Q714.63 4.28 713.84 4.78Q713.05 5.28 712.62 6.21Q712.19 7.14 712.19 8.40L712.19 8.40Q712.19 9.66 712.62 10.59Q713.05 11.52 713.84 12.02Q714.63 12.52 715.71 12.52L715.71 12.52Q716.79 12.52 717.58 12.02Q718.38 11.52 718.81 10.59Q719.24 9.66 719.24 8.40L719.24 8.40Q719.24 7.14 718.81 6.21Q718.38 5.28 717.58 4.78Q716.79 4.28 715.71 4.28L715.71 4.28ZM737.88 3.78L737.88 13.02L737.21 13.02L737.21 6.13L737.30 4.45L737.28 4.45L733.91 13.02L733.26 13.02L729.89 4.45L729.88 4.45L729.96 6.13L729.96 13.02L729.29 13.02L729.29 3.78L730.34 3.78L733.12 10.78L733.59 12.19L733.60 12.19L734.05 10.79L736.83 3.78L737.88 3.78ZM751.46 3.64Q752.77 3.64 753.72 4.22Q754.68 4.80 755.20 5.87Q755.72 6.94 755.72 8.40L755.72 8.40Q755.72 9.86 755.20 10.93Q754.68 12.00 753.72 12.58Q752.77 13.16 751.46 13.16L751.46 13.16Q750.16 13.16 749.20 12.58Q748.24 12.00 747.73 10.93Q747.21 9.86 747.21 8.40L747.21 8.40Q747.21 6.94 747.73 5.87Q748.24 4.80 749.20 4.22Q750.16 3.64 751.46 3.64L751.46 3.64ZM751.46 4.28Q750.39 4.28 749.59 4.78Q748.80 5.28 748.38 6.21Q747.95 7.14 747.95 8.40L747.95 8.40Q747.95 9.66 748.38 10.59Q748.80 11.52 749.59 12.02Q750.39 12.52 751.46 12.52L751.46 12.52Q752.54 12.52 753.34 12.02Q754.14 11.52 754.56 10.59Q754.99 9.66 754.99 8.40L754.99 8.40Q754.99 7.14 754.56 6.21Q754.14 5.28 753.34 4.78Q752.54 4.28 751.46 4.28L751.46 4.28ZM771.99 13.02L771.16 13.02L768.52 9.02L768.47 9.02L765.74 9.02L765.74 13.02L765.04 13.02L765.04 3.78L768.47 3.78Q769.86 3.78 770.68 4.48Q771.50 5.18 771.50 6.40L771.50 6.40Q771.50 7.41 770.91 8.07Q770.32 8.74 769.30 8.93L769.30 8.93L771.99 13.02ZM765.74 4.42L765.74 8.36L768.46 8.36Q769.58 8.36 770.17 7.85Q770.77 7.35 770.77 6.40L770.77 6.40Q770.77 5.45 770.17 4.93Q769.58 4.42 768.46 4.42L768.46 4.42L765.74 4.42ZM787.95 13.02L787.12 13.02L784.48 9.02L784.43 9.02L781.70 9.02L781.70 13.02L781.00 13.02L781.00 3.78L784.43 3.78Q785.82 3.78 786.64 4.48Q787.46 5.18 787.46 6.40L787.46 6.40Q787.46 7.41 786.87 8.07Q786.28 8.74 785.26 8.93L785.26 8.93L787.95 13.02ZM781.70 4.42L781.70 8.36L784.42 8.36Q785.54 8.36 786.13 7.85Q786.73 7.35 786.73 6.40L786.73 6.40Q786.73 5.45 786.13 4.93Q785.54 4.42 784.42 4.42L784.42 4.42L781.70 4.42ZM800.59 3.64Q801.89 3.64 802.85 4.22Q803.81 4.80 804.33 5.87Q804.85 6.94 804.85 8.40L804.85 8.40Q804.85 9.86 804.33 10.93Q803.81 12.00 802.85 12.58Q801.89 13.16 800.59 13.16L800.59 13.16Q799.29 13.16 798.33 12.58Q797.37 12.00 796.85 10.93Q796.33 9.86 796.33 8.40L796.33 8.40Q796.33 6.94 796.85 5.87Q797.37 4.80 798.33 4.22Q799.29 3.64 800.59 3.64L800.59 3.64ZM800.59 4.28Q799.51 4.28 798.72 4.78Q797.93 5.28 797.50 6.21Q797.08 7.14 797.08 8.40L797.08 8.40Q797.08 9.66 797.50 10.59Q797.93 11.52 798.72 12.02Q799.51 12.52 800.59 12.52L800.59 12.52Q801.67 12.52 802.47 12.02Q803.26 11.52 803.69 10.59Q804.12 9.66 804.12 8.40L804.12 8.40Q804.12 7.14 803.69 6.21Q803.26 5.28 802.47 4.78Q801.67 4.28 800.59 4.28L800.59 4.28ZM818.62 6.54L816.76 13.02L815.89 13.02L813.01 3.78L813.76 3.78L816.33 12.45L818.75 3.78L819.56 3.78L821.98 12.46L824.57 3.78L825.29 3.78L822.40 13.02L821.53 13.02L819.67 6.54L819.15 4.54L819.14 4.54L818.62 6.54Z"></path></g></svg>