<svg data-v-423bf9ae="" xmlns="http://www.w3.org/2000/svg" viewBox="0 0 310.84239443201784 60" class="font"><!----><!----><!----><g data-v-423bf9ae="" id="d631e900-f3c8-4f25-a59f-ff3e243e57ca" fill="white" transform="matrix(4.846958609465144,0,0,4.846958609465144,-3.1920716142491017,-15.13755257850724)"><path d="M1.69 4.02Q1.71 3.85 1.88 3.63Q2.04 3.40 2.23 3.28Q2.41 3.16 2.52 3.14L2.52 3.14Q2.77 3.07 2.76 3.29L2.76 3.29L2.28 8.54Q2.72 8.02 3.30 7.68Q3.88 7.34 4.47 7.34L4.47 7.34Q6.86 7.31 6.51 10.63L6.51 10.63L6.17 14.55Q6.16 14.70 5.99 14.92Q5.82 15.15 5.64 15.27Q5.46 15.40 5.35 15.43L5.35 15.43Q5.10 15.50 5.11 15.27L5.11 15.27L5.45 11.35Q5.77 8.39 3.71 8.40L3.71 8.40Q3.30 8.40 3.11 8.51L3.11 8.51Q2.62 8.79 2.20 10.05L2.20 10.05Q2.17 10.14 2.11 10.23L2.11 10.23L1.72 14.55Q1.71 14.70 1.54 14.93Q1.37 15.16 1.19 15.28Q1.01 15.40 0.90 15.43L0.90 15.43Q0.64 15.50 0.66 15.27L0.66 15.27L1.69 4.02ZM11.97 7.34L11.97 7.34Q14.55 7.56 14.04 11.55L14.04 11.55Q13.83 13.15 13.10 14.11L13.10 14.11Q11.98 15.60 10.32 15.44L10.32 15.44Q7.49 15.19 7.92 11.80L7.92 11.80Q8.05 10.84 8.29 10.11Q8.54 9.38 9.03 8.75L9.03 8.75Q10.22 7.18 11.97 7.34ZM11.16 8.40L11.16 8.40Q10.09 8.30 9.72 8.81L9.72 8.81Q9.51 9.07 9.30 9.68Q9.09 10.29 8.99 11.10L8.99 11.10Q8.60 14.15 11.13 14.38L11.13 14.38Q12.10 14.46 12.40 14.06L12.40 14.06Q12.56 13.85 12.73 13.36Q12.89 12.88 12.98 12.25L12.98 12.25Q13.45 8.60 11.16 8.40ZM15.97 8.22Q15.99 8.06 16.16 7.84Q16.32 7.62 16.51 7.50Q16.69 7.38 16.81 7.35L16.81 7.35Q17.07 7.29 17.04 7.50L17.04 7.50L16.97 8.12Q18.05 7.21 19.19 7.34L19.19 7.34Q19.39 7.36 19.29 7.63L19.29 7.63Q19.15 7.99 18.83 8.20Q18.51 8.41 18.38 8.40L18.38 8.40Q17.67 8.32 17.16 8.69L17.16 8.69Q16.93 8.88 16.83 9.55L16.83 9.55L16.30 14.56Q16.28 14.73 16.11 14.95Q15.95 15.16 15.76 15.28Q15.58 15.40 15.46 15.43L15.46 15.43Q15.20 15.48 15.23 15.26L15.23 15.26L15.75 10.36Q15.75 10.33 15.76 10.25L15.76 10.25L15.97 8.22ZM25.77 13.96Q25.94 13.93 25.97 14.06Q26.00 14.20 25.85 14.42Q25.70 14.64 25.35 14.92Q25.00 15.20 24.61 15.36L24.61 15.36Q23.84 15.67 23.66 15.08L23.66 15.08Q23.58 14.84 23.59 14.20L23.59 14.20Q22.86 15.08 22.12 15.34Q21.38 15.61 20.73 15.43L20.73 15.43Q18.73 14.87 19.53 10.81L19.53 10.81Q19.80 9.46 20.47 8.60L20.47 8.60Q21.62 7.11 23.28 7.34L23.28 7.34Q23.98 7.42 24.37 7.85L24.37 7.85Q24.70 7.42 25.05 7.34L25.05 7.34Q25.16 7.31 25.22 7.36Q25.28 7.41 25.27 7.52L25.27 7.52Q24.46 13.44 24.70 14.18L24.70 14.18Q24.81 14.52 25.06 14.39L25.06 14.39Q25.17 14.34 25.38 14.16Q25.59 13.99 25.77 13.96ZM23.66 12.80L23.66 12.80Q23.76 11.68 23.80 11.37L23.80 11.37Q24.16 8.62 22.44 8.40L22.44 8.40Q22.02 8.34 21.71 8.41L21.71 8.41Q21.29 8.50 21.14 8.68L21.14 8.68Q20.79 9.13 20.57 10.28Q20.34 11.42 20.37 12.31L20.37 12.31Q20.45 14.04 21.60 14.36L21.60 14.36Q22.48 14.62 22.96 14.04L22.96 14.04Q23.31 13.62 23.66 12.80ZM30.67 13.77Q30.84 13.73 30.87 13.87Q30.90 14 30.76 14.22Q30.62 14.43 30.21 14.76Q29.81 15.09 29.32 15.30L29.32 15.30Q28.35 15.69 27.87 15.11L27.87 15.11Q27.43 14.59 27.64 13.13L27.64 13.13L28 8.92L26.94 8.92Q26.73 8.92 26.82 8.65L26.82 8.65Q26.94 8.30 27.25 8.07Q27.57 7.84 27.72 7.84L27.72 7.84L28.10 7.84L28.31 5.45Q28.32 5.29 28.49 5.07Q28.66 4.84 28.84 4.72Q29.02 4.59 29.13 4.56L29.13 4.56Q29.39 4.49 29.37 4.72L29.37 4.72L29.11 7.84Q29.72 7.84 30.32 7.84L30.32 7.84Q30.53 7.84 30.44 8.12L30.44 8.12Q30.32 8.47 30.01 8.69Q29.69 8.92 29.54 8.92L29.54 8.92L29.01 8.92L28.70 12.42Q28.70 12.43 28.70 12.45L28.70 12.45Q28.50 13.71 28.88 14.13L28.88 14.13Q29.23 14.56 29.74 14.34L29.74 14.34Q29.97 14.22 30.23 14.01Q30.49 13.80 30.67 13.77ZM32.76 8.22Q32.77 8.06 32.94 7.84Q33.11 7.62 33.29 7.50Q33.47 7.38 33.60 7.35L33.60 7.35Q33.85 7.29 33.82 7.50L33.82 7.50L33.08 14.56Q33.07 14.73 32.90 14.95Q32.73 15.16 32.55 15.28Q32.37 15.40 32.24 15.43L32.24 15.43Q31.99 15.48 32.02 15.26L32.02 15.26L32.76 8.22ZM32.83 5.81Q32.84 5.66 33.01 5.43Q33.17 5.21 33.35 5.08Q33.53 4.96 33.66 4.93L33.66 4.93Q33.91 4.86 33.89 5.08L33.89 5.08L33.82 6.06Q33.81 6.22 33.65 6.44Q33.49 6.66 33.31 6.79Q33.12 6.92 33.00 6.94L33.00 6.94Q32.75 7.01 32.76 6.79L32.76 6.79L32.83 5.81ZM38.95 7.34L38.95 7.34Q41.52 7.56 41.02 11.55L41.02 11.55Q40.81 13.15 40.08 14.11L40.08 14.11Q38.96 15.60 37.30 15.44L37.30 15.44Q34.47 15.19 34.90 11.80L34.90 11.80Q35.03 10.84 35.27 10.11Q35.52 9.38 36.01 8.75L36.01 8.75Q37.20 7.18 38.95 7.34ZM38.14 8.40L38.14 8.40Q37.07 8.30 36.69 8.81L36.69 8.81Q36.48 9.07 36.27 9.68Q36.06 10.29 35.97 11.10L35.97 11.10Q35.57 14.15 38.11 14.38L38.11 14.38Q39.07 14.46 39.38 14.06L39.38 14.06Q39.54 13.85 39.70 13.36Q39.87 12.88 39.96 12.25L39.96 12.25Q40.43 8.60 38.14 8.40ZM42.15 15.27L42.15 15.27L43.13 5.19Q43.22 4.66 43.65 4.41L43.65 4.41Q43.82 4.31 44.03 4.30L44.03 4.30Q50.39 3.92 50.22 9.49L50.22 9.49Q50.15 11.59 49.05 13.05Q47.95 14.52 46.27 15.05Q44.59 15.58 42.28 15.44L42.28 15.44Q42.14 15.44 42.15 15.27ZM44.11 5.33L43.23 14.39Q45.28 14.50 46.58 14.08Q47.88 13.65 48.37 12.98L48.37 12.98Q49.08 12.01 49.15 10.25L49.15 10.25Q49.22 7.81 47.98 6.59Q46.73 5.36 44.11 5.33L44.11 5.33ZM56.50 11.73L52.44 11.63Q52.39 14.22 54.70 14.38L54.70 14.38Q55.19 14.42 55.58 14.35L55.58 14.35Q56.08 14.27 56.14 14.15L56.14 14.15Q56.25 13.94 56.47 13.75Q56.69 13.55 56.87 13.49Q57.05 13.43 57.12 13.54L57.12 13.54Q57.22 13.72 56.85 14.20Q56.49 14.67 56.11 14.95Q55.72 15.22 55.36 15.32L55.36 15.32Q54.54 15.54 53.89 15.44L53.89 15.44Q51.13 15.26 51.41 11.96L51.41 11.96Q51.49 10.93 51.72 10.18Q51.94 9.44 52.43 8.78L52.43 8.78Q53.55 7.27 55.22 7.34L55.22 7.34Q57.86 7.43 57.43 10.85L57.43 10.85Q57.30 11.41 56.87 11.65L56.87 11.65Q56.70 11.75 56.50 11.73L56.50 11.73ZM52.54 10.58L52.54 10.58Q52.64 10.56 52.70 10.56L52.70 10.56L56.42 10.64Q56.38 8.47 54.42 8.40L54.42 8.40Q53.47 8.36 53.14 8.81L53.14 8.81Q52.72 9.37 52.54 10.58ZM58.88 7.96Q59.01 7.74 59.22 7.56Q59.43 7.38 59.61 7.34Q59.79 7.31 59.84 7.42L59.84 7.42L61.52 13.41L63.77 8.08Q63.85 7.88 64.06 7.67Q64.26 7.46 64.46 7.38Q64.67 7.29 64.75 7.37Q64.83 7.45 64.75 7.66L64.75 7.66L61.78 14.70Q61.57 15.19 61.08 15.40L61.08 15.40Q60.80 15.53 60.76 15.34L60.76 15.34L58.77 8.30Q58.74 8.18 58.88 7.96Z"></path></g><!----><!----></svg>